<?xml version="1.0" standalone="no"?>
<!DOCTYPE svg PUBLIC "-//W3C//DTD SVG 20010904//EN"
 "http://www.w3.org/TR/2001/REC-SVG-20010904/DTD/svg10.dtd">
<svg version="1.0" xmlns="http://www.w3.org/2000/svg"
 width="296.000000pt" height="296.000000pt" viewBox="0 0 296.000000 296.000000"
 preserveAspectRatio="xMidYMid meet">
<metadata>
Created by potrace 1.11, written by Peter Selinger 2001-2013
</metadata>
<g transform="translate(0.000000,296.000000) scale(0.100000,-0.100000)"
fill="#000000" stroke="none">
<path d="M1328 2605 c-2 -2 -36 -6 -76 -9 -40 -4 -78 -9 -85 -11 -6 -2 -28 -6
-47 -9 -19 -3 -69 -15 -110 -26 -41 -12 -88 -25 -105 -29 -41 -11 -177 -67
-228 -93 -358 -182 -600 -473 -662 -792 -22 -112 -13 -292 19 -400 132 -442
570 -776 1146 -872 132 -22 407 -26 545 -8 268 36 519 127 720 262 87 58 111
77 185 146 181 170 303 401 325 617 l7 65 -169 1 -170 0 -22 -96 c-59 -260
-249 -484 -531 -626 -116 -58 -265 -105 -382 -119 l-47 -6 1 444 c0 244 -2
448 -5 453 -4 7 -271 10 -298 4 -3 0 -5 -199 -5 -442 1 -242 -2 -445 -5 -451
-9 -14 -129 7 -249 43 -354 108 -625 361 -712 666 -30 103 -32 304 -5 403 97
354 439 639 862 715 105 18 151 24 202 25 l42 0 -2 75 -1 76 -68 -2 c-37 -1
-69 -3 -70 -4z"/>
<path d="M1681 2525 c0 -82 -8 -74 89 -95 338 -72 631 -281 764 -545 34 -69
76 -185 76 -212 0 -10 34 -13 165 -13 91 0 165 4 165 8 0 15 -47 146 -71 197
-133 285 -429 525 -801 650 -103 34 -247 68 -340 78 l-47 6 0 -74z"/>
</g>
</svg>
